<svg width="22" height="22" viewBox="0 0 22 22" fill="none" xmlns="http://www.w3.org/2000/svg">
<path d="M7.99998 20.9992L7.74898 17.4903C7.71666 17.0436 7.77673 16.5952 7.92543 16.1728C8.07414 15.7504 8.3083 15.3632 8.6133 15.0353C8.91829 14.7075 9.28758 14.446 9.69813 14.2672C10.1087 14.0884 10.5517 13.9961 10.9995 13.9961C11.4472 13.9961 11.8902 14.0884 12.3008 14.2672C12.7113 14.446 13.0806 14.7075 13.3856 15.0353C13.6906 15.3632 13.9248 15.7504 14.0735 16.1728C14.2222 16.5952 14.2822 17.0436 14.2499 17.4903L13.9999 20.9992" stroke="currentColor" stroke-linecap="round" stroke-linejoin="round"/>
<path d="M1.35204 12.2138C0.998042 9.91587 0.822044 8.76789 1.25604 7.7489C1.69004 6.72992 2.65403 6.03393 4.58101 4.64095L6.021 3.59996C8.41798 1.86699 9.61697 1 11.001 1C12.383 1 13.5809 1.86699 15.9789 3.59996L17.4189 4.64095C19.3459 6.03393 20.3089 6.73092 20.7439 7.7489C21.1779 8.76789 21.0019 9.91587 20.6489 12.2128L20.3479 14.1728C19.8479 17.4288 19.5969 19.0567 18.4289 20.0287C17.2609 21.0007 15.5539 20.9997 12.14 20.9997H9.85997C6.445 20.9997 4.73801 20.9997 3.57002 20.0287C2.40203 19.0567 2.15203 17.4288 1.65204 14.1718L1.35204 12.2138Z" stroke="currentColor" stroke-linecap="round" stroke-linejoin="round"/>
</svg>
