<svg width="21" height="20" viewBox="0 0 21 20" fill="none" xmlns="http://www.w3.org/2000/svg">
<path fill-rule="evenodd" clip-rule="evenodd" d="M16.8734 0C15.4974 0 14.3338 0.947006 13.9976 2.21841L13.6274 2.04641C13.5614 2.01571 13.4894 1.9998 13.4166 1.9998C13.3438 1.9998 13.2718 2.01571 13.2058 2.04641L7.0832 4.89063L0.9606 2.04661C0.884416 2.01123 0.800546 1.99562 0.716734 2.0012C0.632922 2.00679 0.551868 2.03341 0.481056 2.07859C0.410244 2.12377 0.351956 2.18606 0.311573 2.25972C0.27119 2.33337 0.250014 2.41602 0.25 2.50002V16.5575C0.249978 16.6528 0.277209 16.7462 0.328483 16.8265C0.379758 16.9069 0.452939 16.971 0.5394 17.0111L6.8726 19.9529C6.93863 19.9836 7.01058 19.9995 7.0834 19.9995C7.15622 19.9995 7.22817 19.9836 7.2942 19.9529L13.4168 17.1089L19.5394 19.9529C19.8708 20.1067 20.25 19.8649 20.25 19.4997V5.44223C20.25 5.3469 20.2228 5.25355 20.1715 5.17318C20.1202 5.09282 20.0471 5.02878 19.9606 4.98863L19.3146 4.68823L19.5168 4.34383C19.5628 4.26043 19.5994 4.17163 19.6308 4.08082C19.7754 3.72776 19.8498 3.34993 19.85 2.96842C19.85 1.33701 18.5096 0 16.8734 0ZM16.8734 1.39061C17.7544 1.39061 18.455 2.08981 18.455 2.96842C18.455 3.84682 17.7544 4.54543 16.8734 4.54543C15.9924 4.54543 15.2918 3.84682 15.2918 2.96842C15.2918 2.08981 15.9924 1.39061 16.8734 1.39061ZM13.6402 3.15502L13.9156 3.28322C13.9691 3.78303 14.1499 4.26078 14.4406 4.67083L16.5102 8.24885C16.8002 8.62765 16.993 8.55565 17.234 8.22885L18.8054 5.55423L19.25 5.76104V18.7161L13.7144 16.1447L13.6692 8.20945C13.7508 8.22705 13.8322 8.24405 13.914 8.26345L14.098 7.48525C13.954 7.45121 13.8095 7.41967 13.6644 7.39065L13.6402 3.15502ZM13.0406 3.22582L13.0636 7.29304C12.857 7.26478 12.6493 7.24602 12.441 7.23684L12.4114 8.03605C12.629 8.04405 12.8484 8.06765 13.0684 8.09965L13.1144 16.1465L7.3792 18.8111L7.3054 5.89024L13.0406 3.22582ZM1.25 3.28362L6.705 5.81764L6.7792 18.8071L1.25 16.2383V3.28362ZM11.5586 7.29144C11.2832 7.34085 11.0014 7.42905 10.739 7.58165C10.4251 7.76338 10.167 8.0276 9.9926 8.34565L10.693 8.73205C10.7973 8.54204 10.9512 8.38384 11.1382 8.27425L11.1394 8.27345L11.1406 8.27265C11.302 8.17865 11.4942 8.11545 11.7 8.07865L11.5586 7.29144ZM14.8918 7.69765L14.6652 8.46445C15.1658 8.61245 15.6616 8.78245 16.1546 8.96646L16.4344 8.21685C15.928 8.02805 15.4144 7.85205 14.8918 7.69765ZM9.6914 9.21686L9.6854 9.24846L9.6848 9.25126C9.585 9.81746 9.5956 10.3747 9.618 10.9043L10.4172 10.8703C10.3954 10.3565 10.3908 9.85926 10.4726 9.39266L10.4774 9.36766L9.6914 9.21686ZM10.4648 11.6589L9.6668 11.7129C9.7028 12.2467 9.7412 12.7699 9.7398 13.2829L10.5398 13.2849C10.5414 12.7309 10.5008 12.1893 10.4648 11.6589ZM9.7 14.0369C9.678 14.2275 9.6452 14.4129 9.5972 14.5909L9.5968 14.5919L9.5964 14.5935C9.5264 14.8605 9.4086 15.1077 9.2442 15.3013L9.8536 15.8193C10.1112 15.5163 10.2746 15.1597 10.3696 14.7989L10.37 14.7977C10.43 14.5745 10.469 14.3497 10.4946 14.1277L9.7 14.0369ZM2.9464 14.8165L2.5872 15.5313C3.0832 15.7807 3.5962 15.9869 4.1128 16.1653L4.3738 15.4091C3.8828 15.2397 3.4034 15.0461 2.9464 14.8165ZM5.1136 15.6391L4.9008 16.4103C5.43 16.5565 5.974 16.6727 6.53 16.7353L6.6192 15.9403C6.115 15.8837 5.6122 15.7769 5.1136 15.6391ZM8.7418 15.6955C8.3434 15.8995 7.8624 15.9749 7.3678 15.9809L7.3778 16.7809C7.9446 16.7741 8.5506 16.6921 9.1062 16.4075L8.7418 15.6955Z" fill="currentColor"/>
</svg>
